<?xml version="1.0" encoding="UTF-8"?>
<svg width="24px" height="24px" viewBox="0 0 24 24" version="1.1" xmlns="http://www.w3.org/2000/svg" xmlns:xlink="http://www.w3.org/1999/xlink">
    <title>ic_info_outline</title>
    <g id="Page-1" stroke="none" stroke-width="1" fill="none" fill-rule="evenodd">
        <g id="MVP-desktop" transform="translate(-1154.000000, -408.000000)">
            <g id="classicGT-trend-HOME" transform="translate(0.000000, 374.000000)">
                <g id="top-row" transform="translate(1.000000, 0.000000)">
                    <g id="top-nav" transform="translate(759.174638, 31.000000)">
                        <g id="ic_info_outline" transform="translate(393.825362, 3.000000)">
                            <polygon id="Bounds" points="0 0 24 0 24 24 0 24"></polygon>
                            <path d="M11,17 L13,17 L13,11 L11,11 L11,17 L11,17 Z M12,2 C6.48,2 2,6.48 2,12 C2,17.52 6.48,22 12,22 C17.52,22 22,17.52 22,12 C22,6.48 17.52,2 12,2 L12,2 Z M12,20 C7.59,20 4,16.41 4,12 C4,7.59 7.59,4 12,4 C16.41,4 20,7.59 20,12 C20,16.41 16.41,20 12,20 L12,20 Z M11,9 L13,9 L13,7 L11,7 L11,9 L11,9 Z" id="Icon" fill="#FFFFFF"></path>
                        </g>
                    </g>
                </g>
            </g>
        </g>
    </g>
</svg>