<?xml version="1.0" encoding="UTF-8"?>
<svg width="26px" height="24px" viewBox="0 0 26 24" version="1.1" xmlns="http://www.w3.org/2000/svg" xmlns:xlink="http://www.w3.org/1999/xlink">
    <title>ic_timeline</title>
    <g id="Page-1" stroke="none" stroke-width="1" fill="none" fill-rule="evenodd">
        <g id="MVP-desktop" transform="translate(-760.000000, -408.000000)">
            <g id="classicGT-trend-HOME" transform="translate(0.000000, 374.000000)">
                <g id="top-row" transform="translate(1.000000, 0.000000)">
                    <g id="top-nav" transform="translate(759.174638, 31.000000)">
                        <g id="ic_timeline" transform="translate(0.000000, 3.000000)">
                            <polygon id="Bounds" points="0 0 25.0278087 0 25.0278087 24 0 24"></polygon>
                            <path d="M21.8993326,10 C21.711624,10 21.5343437,9.98 21.3674917,9.93 L17.6550334,13.48 C17.7071746,13.64 17.7280311,13.82 17.7280311,14 C17.7280311,15.1 16.7894883,16 15.6423804,16 C14.4952725,16 13.5567297,15.1 13.5567297,14 C13.5567297,13.82 13.5775862,13.64 13.6297275,13.48 L10.9705228,10.93 C10.8036707,10.98 10.6159622,11 10.4282536,11 C10.2405451,11 10.0528365,10.98 9.88598443,10.93 L5.14112903,15.49 C5.1932703,15.65 5.21412681,15.82 5.21412681,16 C5.21412681,17.1 4.27558398,18 3.12847608,18 C1.98136819,18 1.04282536,17.1 1.04282536,16 C1.04282536,14.9 1.98136819,14 3.12847608,14 C3.31618465,14 3.49346496,14.02 3.66031702,14.07 L8.41560067,9.52 C8.3634594,9.36 8.34260289,9.18 8.34260289,9 C8.34260289,7.9 9.28114572,7 10.4282536,7 C11.5753615,7 12.5139043,7.9 12.5139043,9 C12.5139043,9.18 12.4930478,9.36 12.4409066,9.52 L15.1001112,12.07 C15.2669633,12.02 15.4546719,12 15.6423804,12 C15.830089,12 16.0177976,12.02 16.1846496,12.07 L19.8866796,8.51 C19.8345384,8.35 19.8136819,8.18 19.8136819,8 C19.8136819,6.9 20.7522247,6 21.8993326,6 C23.0464405,6 23.9849833,6.9 23.9849833,8 C23.9849833,9.1 23.0464405,10 21.8993326,10 Z" id="Icon" fill="#FFFFFF"></path>
                        </g>
                    </g>
                </g>
            </g>
        </g>
    </g>
</svg>