<?xml version="1.0" encoding="UTF-8"?>
<svg width="34px" height="26px" viewBox="0 0 34 26" version="1.1" xmlns="http://www.w3.org/2000/svg" xmlns:xlink="http://www.w3.org/1999/xlink">
    <title>my cars</title>
    <g id="Page-1" stroke="none" stroke-width="1" fill="none" fill-rule="evenodd">
        <g id="MVP-desktop" transform="translate(-1030.000000, -405.000000)">
            <g id="classicGT-trend-HOME" transform="translate(0.000000, 374.000000)">
                <g id="top-row" transform="translate(1.000000, 0.000000)">
                    <g id="top-nav" transform="translate(759.174638, 31.000000)">
                        <g id="my-cars" transform="translate(270.122358, 0.000000)">
                            <g id="ic_directions_car" transform="translate(8.008899, 0.000000)">
                                <polygon id="Bounds" points="0 0 25.0278087 0 25.0278087 24 0 24"></polygon>
                                <path d="M19.7302558,6.01 C19.5216908,5.42 18.9377086,5 18.2494438,5 L6.77836485,5 C6.09010011,5 5.51654616,5.42 5.29755284,6.01 L3.12847608,12 L3.12847608,20 C3.12847608,20.55 3.5977475,21 4.17130145,21 L5.21412681,21 C5.78768076,21 6.25695217,20.55 6.25695217,20 L6.25695217,19 L18.7708565,19 L18.7708565,20 C18.7708565,20.55 19.2401279,21 19.8136819,21 L20.8565072,21 C21.4300612,21 21.8993326,20.55 21.8993326,20 L21.8993326,12 L19.7302558,6.01 L19.7302558,6.01 Z M6.77836485,16 C5.9128198,16 5.21412681,15.33 5.21412681,14.5 C5.21412681,13.67 5.9128198,13 6.77836485,13 C7.6439099,13 8.34260289,13.67 8.34260289,14.5 C8.34260289,15.33 7.6439099,16 6.77836485,16 L6.77836485,16 Z M18.2494438,16 C17.3838988,16 16.6852058,15.33 16.6852058,14.5 C16.6852058,13.67 17.3838988,13 18.2494438,13 C19.1149889,13 19.8136819,13.67 19.8136819,14.5 C19.8136819,15.33 19.1149889,16 18.2494438,16 L18.2494438,16 Z M5.21412681,11 L6.77836485,6.5 L18.2494438,6.5 L19.8136819,11 L5.21412681,11 L5.21412681,11 Z" id="Icon" fill="#FFFFFF"></path>
                            </g>
                            <polygon id="Path-4" fill="none" points="20.0447081 4.5 22.9004453 13.9333811 22.9004453 19.012894 4.3381535 19.012894 4.3381535 4.5"></polygon>
                            <g id="ic_directions_car" transform="translate(0.000000, 2.000000)">
                                <polygon id="Bounds" points="0 0 25.0278087 0 25.0278087 24 0 24"></polygon>
                                <path d="M19.7302558,6.01 C19.5216908,5.42 18.9377086,5 18.2494438,5 L6.77836485,5 C6.09010011,5 5.51654616,5.42 5.29755284,6.01 L3.12847608,12 L3.12847608,20 C3.12847608,20.55 3.5977475,21 4.17130145,21 L5.21412681,21 C5.78768076,21 6.25695217,20.55 6.25695217,20 L6.25695217,19 L18.7708565,19 L18.7708565,20 C18.7708565,20.55 19.2401279,21 19.8136819,21 L20.8565072,21 C21.4300612,21 21.8993326,20.55 21.8993326,20 L21.8993326,12 L19.7302558,6.01 L19.7302558,6.01 Z M6.77836485,16 C5.9128198,16 5.21412681,15.33 5.21412681,14.5 C5.21412681,13.67 5.9128198,13 6.77836485,13 C7.6439099,13 8.34260289,13.67 8.34260289,14.5 C8.34260289,15.33 7.6439099,16 6.77836485,16 L6.77836485,16 Z M18.2494438,16 C17.3838988,16 16.6852058,15.33 16.6852058,14.5 C16.6852058,13.67 17.3838988,13 18.2494438,13 C19.1149889,13 19.8136819,13.67 19.8136819,14.5 C19.8136819,15.33 19.1149889,16 18.2494438,16 L18.2494438,16 Z M5.21412681,11 L6.77836485,6.5 L18.2494438,6.5 L19.8136819,11 L5.21412681,11 L5.21412681,11 Z" id="Icon" fill="#FFFFFF"></path>
                            </g>
                        </g>
                    </g>
                </g>
            </g>
        </g>
    </g>
</svg>