<svg xmlns="http://www.w3.org/2000/svg" width="39.39" height="31" viewBox="0 0 39.39 31">
  <g>
    <g>
      <path fill="none" d="M9.54907162 0h29.8408488v28.61538462H9.54907162V0z"/>
      <path fill="rgb(0,0,0)" fill-rule="evenodd" d="M31.30806175 5.96142578c.82055664 0 1.5168457.50097656 1.765625 1.20410156l2.58618164 7.14208985v9.53857422c0 .65576172-.55957032 1.1923828-1.2434082 1.1923828h-1.24340821c-.68383789 0-1.24316406-.53662109-1.24316406-1.1923828v-1.19238282H17.00947776v1.19238282c0 .65576172-.55957031 1.1923828-1.2434082 1.1923828h-1.2434082c-.6838379 0-1.2434082-.53662109-1.2434082-1.1923828v-9.53857422l2.58618163-7.14208985c.26123047-.703125.94506836-1.20410156 1.765625-1.20410156h13.67700196zM17.63081565 7.75l-1.86499023 5.36523438h17.40722656L31.30781761 7.75H17.63081565zm-1.86499023 9.53857422c0 .9897461.83300781 1.78857422 1.86499023 1.78857422s1.86523438-.79882813 1.86523438-1.78857422c0-.9897461-.83325196-1.78857422-1.86523438-1.78857422-1.03198242 0-1.86499023.79882813-1.86499023 1.78857422zm15.54223633 1.78857422c-1.03198243 0-1.86499024-.79882813-1.86499024-1.78857422 0-.9897461.83300781-1.78857422 1.86499024-1.78857422 1.03198242 0 1.86523437.79882813 1.86523437 1.78857422 0 .9897461-.83325195 1.78857422-1.86523437 1.78857422z"/>
    </g>
    <path fill="rgb(247,247,247)" fill-rule="evenodd" d="M23.89945963 5.36538462l3.40491743 11.24749285v6.0563423H5.17241379V5.36538462h18.72704584z"/>
    <g>
      <path fill="none" d="M0 2.38461538h29.8408488V31H0V2.38461538z"/>
      <path fill="rgb(0,0,0)" fill-rule="evenodd" d="M21.75898948 8.3461914c.82055664 0 1.5168457.50097657 1.765625 1.20410157l2.58618164 7.14208984v9.53857422c0 .65576172-.55957031 1.19238281-1.2434082 1.19238281h-1.2434082c-.6838379 0-1.24316407-.53662109-1.24316407-1.1923828v-1.19238282H7.4604055v1.19238281c0 .65576172-.55957032 1.19238281-1.2434082 1.19238281H4.97358908c-.6838379 0-1.2434082-.53662109-1.2434082-1.1923828V16.6923828l2.58618164-7.14208984c.26123047-.703125.94506836-1.20410156 1.765625-1.20410156h13.67700195zm-13.6772461 1.78857422L6.21675316 15.5h17.40722656l-1.86523437-5.36523438H8.08174339zm-1.86499023 9.53857422c0 .9897461.83300781 1.78857422 1.86499024 1.78857422 1.03198242 0 1.86523437-.79882812 1.86523437-1.78857422 0-.98974609-.83325195-1.78857422-1.86523437-1.78857422-1.03198243 0-1.86499024.79882813-1.86499024 1.78857422zm15.54223633 1.78857422c-1.03198242 0-1.86499023-.79882812-1.86499023-1.78857422 0-.98974609.8330078-1.78857422 1.86499023-1.78857422 1.03198242 0 1.86523438.79882813 1.86523438 1.78857422 0 .9897461-.83325196 1.78857422-1.86523438 1.78857422z"/>
    </g>
  </g>
</svg>
